<svg width="28" height="28" viewBox="0 0 28 28" fill="none" xmlns="http://www.w3.org/2000/svg">
<path d="M15.1667 4.6665H12.8333C8.43355 4.6665 6.23367 4.6665 4.86683 6.03334C3.5 7.40018 3.5 9.60006 3.5 13.9998V16.3332C3.5 20.7329 3.5 22.9329 4.86683 24.2996C6.23367 25.6665 8.43355 25.6665 12.8333 25.6665H15.1667C19.5664 25.6665 21.7664 25.6665 23.1331 24.2996C24.5 22.9329 24.5 20.7329 24.5 16.3332V13.9998C24.5 9.60006 24.5 7.40018 23.1331 6.03334C21.7664 4.6665 19.5664 4.6665 15.1667 4.6665Z" fill="black" stroke="black" stroke-width="1.5" stroke-linecap="round" stroke-linejoin="round"/>
<path d="M13.9949 16.3335H14.0054M13.9949 21.0002H14.0054M18.6563 16.3335H18.6668M9.3335 16.3335H9.34396M9.3335 21.0002H9.34396" stroke="white" stroke-width="2" stroke-linecap="round" stroke-linejoin="round"/>
<path d="M18.6668 2.3335V7.00016M9.3335 2.3335V7.00016" stroke="white" stroke-width="1.5" stroke-linecap="round" stroke-linejoin="round"/>
<path d="M3.5 11.6665H24.5" stroke="white" stroke-width="1.5" stroke-linecap="round" stroke-linejoin="round"/>
</svg>
