<svg width="48" height="25" viewBox="0 0 48 25" fill="none" xmlns="http://www.w3.org/2000/svg">
<path d="M1.44875 24.328L1.12875 23.752V23.112L1.00075 22.856V20.616L1.25675 19.72L0.968751 19.368L1.06475 17.832L1.00075 17L1.16075 16.648L1.19275 16.2L0.968751 15.912V13.384L1.38475 12.776L0.968751 12.456V10.792L1.09675 10.024L0.968751 8.424L1.38475 8.136L1.00075 7.752L0.968751 7.304L1.22475 6.056L0.968751 5.736V3.016L1.06475 1.992L1.76875 1.256L2.34475 1.064L4.74475 1.224L5.09675 1.672L5.86475 1.064H7.43275L8.58475 0.935999H10.2808L10.7608 1.288H14.0568L14.9208 1.096L15.9448 1.352L16.1688 1.672L16.0728 2.632L15.9448 2.952L15.4968 3.4L14.4088 3.688L13.8008 3.752H5.80075L5.12875 3.88L4.55275 4.136L4.00875 4.616L4.10475 5.256L3.94475 6.344V7.688L3.56075 8.04L3.97675 8.648L4.26475 10.024L4.23275 10.472L5.06475 11.4H14.2488L15.0808 11.976L15.2408 12.232L15.4008 12.808L15.1768 13.384L14.6008 13.832L13.7368 14.152H9.99275L9.28875 14.024L8.84075 14.184H4.87275L4.29675 14.632L3.84875 16.808L3.97675 17.224L3.84875 18.152L3.97675 19.208L3.91275 20.2L3.72075 20.136V21.736L3.97675 22.184V22.504L3.78475 22.984L3.52875 24.168L2.79275 24.648H2.18475L1.44875 24.328ZM19.3203 3.08L19.7363 2.696L18.7443 2.088L18.8723 1.608L19.1283 1.384L19.9603 1.032L21.0483 0.839998H23.3843L25.5283 1.064L27.0643 0.872L27.4803 0.935999L28.6323 1.384L28.9523 2.088L28.0243 2.696L27.4163 2.92L27.8643 3.496L26.8403 3.72L25.9443 4.136L25.5283 4.552L25.2083 5.128L25.0803 6.248L25.3363 7.016L24.9203 7.944L25.3043 9.192L25.1763 9.736L25.2403 9.896V10.664L24.9843 11.432L25.3043 12.2L25.0483 12.904L25.3363 14.152L25.1123 14.568L24.6643 14.824L25.1763 15.208L25.3363 15.624L25.1763 16.328L25.3043 17.48V19.08L25.1443 20.04L25.7523 21.672L26.1363 21.96L26.9363 22.024L27.6723 22.184L28.2163 22.44L28.7283 22.952L28.8563 23.72L28.7923 23.912L28.1843 24.68L27.3203 24.776H25.8803L24.7603 24.904H20.4403L19.8323 24.808L19.3203 24.584L18.9363 24.168L19.0323 23.528L18.9363 22.824L19.0323 22.696L19.6723 22.376L21.3363 22.024L21.8802 21.384L22.1683 20.904L22.5523 19.912V18.504L22.6483 18.088L22.3603 17.864V12.616L22.4883 11.272L22.3603 10.856V7.464L22.2643 6.952L22.4883 6.152V4.904L22.0083 4.264L20.8883 3.592L19.3203 3.08ZM38.1517 24.168L38.0877 23.272L37.8317 22.984V20.456L38.1517 19.368L37.9598 19.24V16.936L38.1517 16.36V14.568L38.0557 14.248L37.9917 13.48L38.2478 12.776L37.8958 11.88L38.0238 10.952L37.9277 10.728V6.632L38.2157 5.864L37.7677 5.384L37.6718 4.328L37.2238 4.04L36.3277 3.688L34.9837 3.368H32.6797L32.7117 3.016L31.4957 2.312L31.3357 2.28L31.3997 1.672L31.8157 1.32L33.6397 0.807999H36.5517L38.8237 0.999998L39.3997 0.872H42.2157L43.5278 0.743999L45.1278 1.032H46.2157L47.0798 1.448L47.1758 1.736L46.8237 2.376L46.4078 2.536L46.7917 3.208L46.0877 3.432H44.2318L43.0478 3.528L41.9917 3.784L41.1597 4.264L40.9038 4.616L40.5837 5.608V6.248L40.7118 6.408V15.592L40.4558 16.584L40.7118 16.904V18.472L40.5837 19.24L40.1997 19.144L40.7118 20.2L40.5837 21.416L40.6798 22.504L40.3597 23.912L40.0717 24.424L39.4637 24.648L38.9517 24.616L38.1517 24.168Z" fill="black"/>
</svg>
