<svg width="28" height="28" viewBox="0 0 28 28" fill="none" xmlns="http://www.w3.org/2000/svg">
<path d="M3.5 13.9877V16.9165C3.5 20.7663 3.5 22.6912 4.69598 23.8872C5.89196 25.0832 7.81686 25.0832 11.6667 25.0832H16.3333C20.1831 25.0832 22.108 25.0832 23.304 23.8872C24.5 22.6912 24.5 20.7663 24.5 16.9165V13.9877C24.5 12.0262 24.5 11.0455 24.0848 10.1966C23.6696 9.3476 22.8955 8.7455 21.3472 7.5413L19.0139 5.72648C16.6053 3.85316 15.401 2.9165 14 2.9165C12.5989 2.9165 11.3947 3.85316 8.98616 5.72648L6.65281 7.5413C5.10455 8.7455 4.33042 9.3476 3.91522 10.1966C3.5 11.0455 3.5 12.0262 3.5 13.9877Z" fill="black" stroke="black" stroke-width="1.5" stroke-linecap="round" stroke-linejoin="round"/>
<path d="M17.5 19.8335C16.5673 20.5596 15.3419 21.0002 14 21.0002C12.658 21.0002 11.4328 20.5596 10.5 19.8335" stroke="white" stroke-width="1.5" stroke-linecap="round" stroke-linejoin="round"/>
</svg>
