<svg width="113" height="154" viewBox="0 0 113 154" fill="none" xmlns="http://www.w3.org/2000/svg">
<path d="M11.3815 61.72L10.4855 60.824L9.7175 59.096L9.5895 57.88L9.7175 58.52L10.0375 56.408L9.0135 54.04L9.4615 52.504L8.6935 51.608L8.3735 50.2V47.64L9.1415 46.808L7.7975 44.824L8.0535 43.096L7.1575 42.392V37.208L6.1975 35.224L5.4295 29.08V27.032L4.7255 24.856L4.9815 23.704L4.1495 21.08L5.1095 20.376L4.0215 19.096V16.92L4.2775 16.216L5.4295 15L6.1975 14.744L7.8615 14.936L8.8215 15.384L9.7815 16.408L10.2935 17.752L10.4215 19.416L9.8455 20.44L10.6775 21.016V23.768L11.2535 24.792V28.568L11.9575 31.832V34.008L10.7415 34.2L12.4695 35.672L12.0215 37.656L13.1735 39.896L14.0055 42.456L13.4295 43.16L14.5815 44.056L15.7975 43.096L15.0295 42.2L16.3735 41.112L16.1175 39.896L16.8855 37.848L17.1415 36.44L17.9095 35.416L17.6535 33.624L18.6135 31.832L20.2775 31.192L20.6615 30.68L20.0855 29.976L21.3015 29.464L22.7735 30.04L24.2455 31.768L24.6295 32.664L24.7575 34.392L24.5655 35.032L25.6535 37.4L25.5255 37.784L25.9095 39.512L26.2935 40.216L27.1255 42.648L28.5335 42.456L30.0695 41.176L29.8135 39.704L29.9415 38.296L29.8135 37.528L29.9415 36.504L30.6455 34.648L30.3255 33.048L30.5175 32.28L31.0295 31.256L30.7735 29.4L30.9015 27.416L31.5415 24.856L31.8615 24.536L31.4775 23.384L31.7335 22.232L32.5655 21.4L31.7975 19.736L32.1815 17.752L33.0135 16.28L33.5895 15.64L35.1255 14.872H36.5975L38.3255 16.28V19.416L38.0055 22.552L37.0455 24.088L37.6215 25.112L37.2375 28.76L36.4695 30.36V32.6L35.9575 34.008L35.6375 37.208L35.5095 36.952V40.6L34.9975 42.84L34.1015 44.376L34.6135 45.848L33.9095 47.896L34.1015 48.728L33.5895 51.992V53.272L33.1415 54.104L32.8855 56.92L32.3095 59.608L31.5415 61.016L30.6455 61.72L28.1495 62.488L27.4455 62.232L25.7815 61.272L25.3975 60.824L24.9495 59.352L25.3975 58.392L24.4375 57.688L24.1175 56.6V54.552L23.6055 53.912L23.2215 52.056L22.3895 50.072V48.92L21.8135 47.896L20.4695 48.408L19.4455 50.904L18.6135 52.184L18.8055 53.848V56.216L17.6535 58.008V59.288L16.8215 61.336L15.6055 62.104L13.2375 62.488L11.3815 61.72ZM46.1805 61.528L43.5565 58.2L42.4685 56.344L41.9565 54.232L42.1485 51.736L41.3165 50.584V47.96L41.5725 45.72L41.3805 43.352L41.7645 42.712L41.3805 40.792L41.8925 38.296L41.3165 37.656L41.5725 34.968L41.3165 34.2V27.48L41.9565 26.2L42.0845 24.92L43.1085 21.72L42.5965 20.568L43.3645 19.096L44.1965 18.136L44.5805 16.856L45.8605 15.64L47.3965 14.936L50.5965 14.36L50.9805 13.912L52.2605 13.592H59.9405L62.7565 13.912L65.7645 14.872L66.6605 15.384L68.2605 17.112L69.4765 18.584L69.7965 20.44L70.6285 21.784L70.8205 24.024L71.2685 24.856V27.288L71.1405 28.504L71.5245 31.192L71.2045 32.664V34.2L71.3965 34.968V42.584L70.8205 43.288L71.5245 45.272L71.2045 50.008L70.6285 50.52L71.0765 51.096L70.8845 52.952L70.5005 54.616V56.024L69.4765 57.752L69.5405 58.2L68.9005 59.352L67.6205 60.312L63.4605 62.616L61.7965 63.128H51.4285L48.5485 62.552L46.1805 61.528ZM49.5085 55.832L50.9805 57.048L52.9005 57.56L54.9485 57.752H57.5085L60.6445 57.368L62.0525 56.728L63.5885 55.384L64.6765 53.016L65.1245 51.288L65.5725 48.216V45.528L65.3805 44.568L65.5725 43.992L65.3165 41.176L65.5725 39.192L65.3165 36.248L65.5725 33.88L65.3165 32.6V28.632L65.5725 27.352L64.9965 24.6V23.32L63.8445 21.464L61.1565 19.672L56.7405 18.904L53.4765 19.352L50.7885 20.12L49.1885 21.016L48.8685 21.336L48.0365 24.216L47.2685 24.344V43.032L46.8205 45.144L47.2685 46.872V47.96L47.0765 48.792L47.5245 51.224L46.7565 51.736L47.3325 52.184L48.4205 53.72L49.5085 55.832ZM78.0995 61.784L77.3955 60.504L77.9715 59.48L77.1395 58.264V43.48L77.3955 41.816L77.1395 40.152L77.3955 38.36L77.1395 37.912V32.216L77.9715 32.024L77.3315 30.936L77.1395 29.528L77.3315 28.44L78.0355 28.12L77.1395 27.544L77.3955 25.56L77.1395 23.96V22.616L77.3955 21.4L77.1395 20.44V18.968L77.4595 16.984L77.7155 16.472L78.4195 15.96L80.4035 15.384L83.3475 14.872L85.9715 15.448H87.2515L89.7475 14.936L91.5395 15.448L94.8675 15.768L97.0435 16.472L98.8995 17.432L100.884 18.84L103.252 21.272L104.66 23.256L104.724 23.96L104.34 24.408L105.044 24.92L106.26 26.776V27.672L106.196 28.248L106.772 29.656L107.476 33.496L107.347 34.2L106.644 35.096L107.668 37.464L107.54 38.36L106.964 39.576L107.412 41.688L107.092 42.648L107.54 43.544L106.9 47.832L106.068 49.24L106.26 49.944L106.196 50.648L105.108 51.928L104.724 54.36L101.908 57.944L101.14 58.456L99.4115 59.096L98.3875 59.864L96.7235 61.464L94.4195 62.168L89.8115 62.872H81.9395L79.6995 62.552L78.0995 61.784ZM84.3075 56.92H88.9155L94.8675 56.28V55.704L97.4915 53.08L98.4515 52.44L99.7315 50.136L100.308 48.152L101.012 46.936L101.332 44.568L101.78 42.648V35.032L101.332 34.328V32.152L99.5395 27.736L99.2835 25.624L96.5315 22.936L95.1235 21.784L91.4755 20.824L89.4275 20.568H85.9715L84.8195 20.76L83.5395 22.36L83.0915 23.896V32.664L82.3235 34.648L83.0915 36.184V37.208L82.8995 38.552L83.0915 40.536L83.7955 41.432L82.5795 42.264L83.0915 43.288V48.408L82.7075 49.176L83.0915 50.008L82.8995 52.504L83.2195 54.296L84.3075 56.92Z" fill="#63461E"/>
<path d="M10.5175 138.656L9.8775 137.504V136.224L9.6215 135.712V131.232L10.1335 129.44L9.5575 128.736L9.7495 125.664L9.6215 124L9.9415 123.296L10.0055 122.4L9.5575 121.824V116.768L10.3895 115.552L9.5575 114.912V111.584L9.8135 110.048L9.5575 106.848L10.3895 106.272L9.6215 105.504L9.5575 104.608L10.0695 102.112L9.5575 101.472V96.032L9.7495 93.984L11.1575 92.512L12.3095 92.128L17.1095 92.448L17.8135 93.344L19.3495 92.128H22.4855L24.7895 91.872H28.1815L29.1415 92.576H35.7335L37.4615 92.192L39.5095 92.704L39.9575 93.344L39.7655 95.264L39.5095 95.904L38.6135 96.8L36.4375 97.376L35.2215 97.504H19.2215L17.8775 97.76L16.7255 98.272L15.6375 99.232L15.8295 100.512L15.5095 102.688V105.376L14.7415 106.08L15.5735 107.296L16.1495 110.048L16.0855 110.944L17.7495 112.8H36.1175L37.7815 113.952L38.1015 114.464L38.4215 115.616L37.9735 116.768L36.8215 117.664L35.0935 118.304H27.6055L26.1975 118.048L25.3015 118.368H17.3655L16.2135 119.264L15.3175 123.616L15.5735 124.448L15.3175 126.304L15.5735 128.416L15.4455 130.4L15.0615 130.272V133.472L15.5735 134.368V135.008L15.1895 135.968L14.6775 138.336L13.2055 139.296H11.9895L10.5175 138.656ZM47.1405 96.16L47.9725 95.392L45.9885 94.176L46.2445 93.216L46.7565 92.768L48.4205 92.064L50.5965 91.68H55.2685L59.5565 92.128L62.6285 91.744L63.4605 91.872L65.7645 92.768L66.4045 94.176L64.5485 95.392L63.3325 95.84L64.2285 96.992L62.1805 97.44L60.3885 98.272L59.5565 99.104L58.9165 100.256L58.6605 102.496L59.1725 104.032L58.3405 105.888L59.1085 108.384L58.8525 109.472L58.9805 109.792V111.328L58.4685 112.864L59.1085 114.4L58.5965 115.808L59.1725 118.304L58.7245 119.136L57.8285 119.648L58.8525 120.416L59.1725 121.248L58.8525 122.656L59.1085 124.96V128.16L58.7885 130.08L60.0045 133.344L60.7725 133.92L62.3725 134.048L63.8445 134.368L64.9325 134.88L65.9565 135.904L66.2125 137.44L66.0845 137.824L64.8685 139.36L63.1405 139.552H60.2605L58.0205 139.808H49.3805L48.1645 139.616L47.1405 139.168L46.3725 138.336L46.5645 137.056L46.3725 135.648L46.5645 135.392L47.8445 134.752L51.1725 134.048L52.2605 132.768L52.8365 131.808L53.6045 129.824V127.008L53.7965 126.176L53.2205 125.728V115.232L53.4765 112.544L53.2205 111.712V104.928L53.0285 103.904L53.4765 102.304V99.808L52.5165 98.528L50.2765 97.184L47.1405 96.16ZM85.6835 138.336L85.5555 136.544L85.0435 135.968V130.912L85.6835 128.736L85.2995 128.48V123.872L85.6835 122.72V119.136L85.4915 118.496L85.3635 116.96L85.8755 115.552L85.1715 113.76L85.4275 111.904L85.2355 111.456V103.264L85.8115 101.728L84.9155 100.768L84.7235 98.656L83.8275 98.08L82.0355 97.376L79.3475 96.736H74.7395L74.8035 96.032L72.3715 94.624L72.0515 94.56L72.1795 93.344L73.0115 92.64L76.6595 91.616H82.4835L87.0275 92L88.1795 91.744H93.8115L96.4355 91.488L99.6355 92.064H101.812L103.54 92.896L103.732 93.472L103.028 94.752L102.196 95.072L102.964 96.416L101.556 96.864H97.8435L95.4755 97.056L93.3635 97.568L91.6995 98.528L91.1875 99.232L90.5475 101.216V102.496L90.8035 102.816V121.184L90.2915 123.168L90.8035 123.808V126.944L90.5475 128.48L89.7795 128.288L90.8035 130.4L90.5475 132.832L90.7395 135.008L90.0995 137.824L89.5235 138.848L88.3075 139.296L87.2835 139.232L85.6835 138.336Z" fill="black"/>
</svg>
