<svg width="121" height="32" viewBox="0 0 121 32" fill="none" xmlns="http://www.w3.org/2000/svg">
<path d="M8.68 28.064L8.232 27.616L7.848 26.752L7.784 26.144L7.848 26.464L8.008 25.408L7.496 24.224L7.72 23.456L7.336 23.008L7.176 22.304V21.024L7.56 20.608L6.888 19.616L7.016 18.752L6.568 18.4V15.808L6.088 14.816L5.704 11.744V10.72L5.352 9.632L5.48 9.056L5.064 7.744L5.544 7.392L5 6.752V5.664L5.128 5.312L5.704 4.704L6.088 4.576L6.92 4.672L7.4 4.896L7.88 5.408L8.136 6.08L8.2 6.912L7.912 7.424L8.328 7.712V9.088L8.616 9.6V11.488L8.968 13.12V14.208L8.36 14.304L9.224 15.04L9 16.032L9.576 17.152L9.992 18.432L9.704 18.784L10.28 19.232L10.888 18.752L10.504 18.304L11.176 17.76L11.048 17.152L11.432 16.128L11.56 15.424L11.944 14.912L11.816 14.016L12.296 13.12L13.128 12.8L13.32 12.544L13.032 12.192L13.64 11.936L14.376 12.224L15.112 13.088L15.304 13.536L15.368 14.4L15.272 14.72L15.816 15.904L15.752 16.096L15.944 16.96L16.136 17.312L16.552 18.528L17.256 18.432L18.024 17.792L17.896 17.056L17.96 16.352L17.896 15.968L17.96 15.456L18.312 14.528L18.152 13.728L18.248 13.344L18.504 12.832L18.376 11.904L18.44 10.912L18.76 9.632L18.92 9.472L18.728 8.896L18.856 8.32L19.272 7.904L18.888 7.072L19.08 6.08L19.496 5.344L19.784 5.024L20.552 4.64H21.288L22.152 5.344V6.912L21.992 8.48L21.512 9.248L21.8 9.76L21.608 11.584L21.224 12.384V13.504L20.968 14.208L20.808 15.808L20.744 15.68V17.504L20.488 18.624L20.04 19.392L20.296 20.128L19.944 21.152L20.04 21.568L19.784 23.2V23.84L19.56 24.256L19.432 25.664L19.144 27.008L18.76 27.712L18.312 28.064L17.064 28.448L16.712 28.32L15.88 27.84L15.688 27.616L15.464 26.88L15.688 26.4L15.208 26.048L15.048 25.504V24.48L14.792 24.16L14.6 23.232L14.184 22.24V21.664L13.896 21.152L13.224 21.408L12.712 22.656L12.296 23.296L12.392 24.128V25.312L11.816 26.208V26.848L11.4 27.872L10.792 28.256L9.608 28.448L8.68 28.064Z" fill="#63461E"/>
<path d="M26.5195 27.968L25.2075 26.304L24.6635 25.376L24.4075 24.32L24.5035 23.072L24.0875 22.496V21.184L24.2155 20.064L24.1195 18.88L24.3115 18.56L24.1195 17.6L24.3755 16.352L24.0875 16.032L24.2155 14.688L24.0875 14.304V10.944L24.4075 10.304L24.4715 9.664L24.9835 8.064L24.7275 7.488L25.1115 6.752L25.5275 6.272L25.7195 5.632L26.3595 5.024L27.1275 4.672L28.7275 4.384L28.9195 4.16L29.5595 4H33.3995L34.8075 4.16L36.3115 4.64L36.7595 4.896L37.5595 5.76L38.1675 6.496L38.3275 7.424L38.7435 8.096L38.8395 9.216L39.0635 9.632V10.848L38.9995 11.456L39.1915 12.8L39.0315 13.536V14.304L39.1275 14.688V18.496L38.8395 18.848L39.1915 19.84L39.0315 22.208L38.7435 22.464L38.9675 22.752L38.8715 23.68L38.6795 24.512V25.216L38.1675 26.08L38.1995 26.304L37.8795 26.88L37.2395 27.36L35.1595 28.512L34.3275 28.768H29.1435L27.7035 28.48L26.5195 27.968ZM28.1835 25.12L28.9195 25.728L29.8795 25.984L30.9035 26.08H32.1835L33.7515 25.888L34.4555 25.568L35.2235 24.896L35.7675 23.712L35.9915 22.848L36.2155 21.312V19.968L36.1195 19.488L36.2155 19.2L36.0875 17.792L36.2155 16.8L36.0875 15.328L36.2155 14.144L36.0875 13.504V11.52L36.2155 10.88L35.9275 9.504V8.864L35.3515 7.936L34.0075 7.04L31.7995 6.656L30.1675 6.88L28.8235 7.264L28.0235 7.712L27.8635 7.872L27.4475 9.312L27.0635 9.376V18.72L26.8395 19.776L27.0635 20.64V21.184L26.9675 21.6L27.1915 22.816L26.8075 23.072L27.0955 23.296L27.6395 24.064L28.1835 25.12Z" fill="#63461E"/>
<path d="M42.919 28.096L42.567 27.456L42.855 26.944L42.439 26.336V18.944L42.567 18.112L42.439 17.28L42.567 16.384L42.439 16.16V13.312L42.855 13.216L42.535 12.672L42.439 11.968L42.535 11.424L42.887 11.264L42.439 10.976L42.567 9.984L42.439 9.184V8.512L42.567 7.904L42.439 7.424V6.688L42.599 5.696L42.727 5.44L43.079 5.184L44.071 4.896L45.543 4.64L46.855 4.928H47.495L48.743 4.672L49.639 4.928L51.303 5.088L52.391 5.44L53.319 5.92L54.311 6.624L55.495 7.84L56.199 8.832L56.231 9.184L56.039 9.408L56.391 9.664L56.999 10.592V11.04L56.967 11.328L57.255 12.032L57.607 13.952L57.543 14.304L57.191 14.752L57.703 15.936L57.639 16.384L57.351 16.992L57.575 18.048L57.415 18.528L57.639 18.976L57.319 21.12L56.903 21.824L56.999 22.176L56.967 22.528L56.423 23.168L56.231 24.384L54.823 26.176L54.439 26.432L53.575 26.752L53.063 27.136L52.231 27.936L51.079 28.288L48.775 28.64H44.839L43.719 28.48L42.919 28.096ZM46.023 25.664H48.327L51.303 25.344V25.056L52.615 23.744L53.095 23.424L53.735 22.272L54.023 21.28L54.375 20.672L54.535 19.488L54.759 18.528V14.72L54.535 14.368V13.28L53.639 11.072L53.511 10.016L52.135 8.672L51.431 8.096L49.607 7.616L48.583 7.488H46.855L46.279 7.584L45.639 8.384L45.415 9.152V13.536L45.031 14.528L45.415 15.296V15.808L45.319 16.48L45.415 17.472L45.767 17.92L45.159 18.336L45.415 18.848V21.408L45.223 21.792L45.415 22.208L45.319 23.456L45.479 24.352L46.023 25.664Z" fill="#63461E"/>
<path d="M71.628 28.032L71.308 27.456V26.816L71.18 26.56V24.32L71.436 23.424L71.148 23.072L71.244 21.536L71.18 20.704L71.34 20.352L71.372 19.904L71.148 19.616V17.088L71.564 16.48L71.148 16.16V14.496L71.276 13.728L71.148 12.128L71.564 11.84L71.18 11.456L71.148 11.008L71.404 9.76L71.148 9.44V6.72L71.244 5.696L71.948 4.96L72.524 4.768L74.924 4.928L75.276 5.376L76.044 4.768H77.612L78.764 4.64H80.46L80.94 4.992H84.236L85.1 4.8L86.124 5.056L86.348 5.376L86.252 6.336L86.124 6.656L85.676 7.104L84.588 7.392L83.98 7.456H75.98L75.308 7.584L74.732 7.84L74.188 8.32L74.284 8.96L74.124 10.048V11.392L73.74 11.744L74.156 12.352L74.444 13.728L74.412 14.176L75.244 15.104H84.428L85.26 15.68L85.42 15.936L85.58 16.512L85.356 17.088L84.78 17.536L83.916 17.856H80.172L79.468 17.728L79.02 17.888H75.052L74.476 18.336L74.028 20.512L74.156 20.928L74.028 21.856L74.156 22.912L74.092 23.904L73.9 23.84V25.44L74.156 25.888V26.208L73.964 26.688L73.708 27.872L72.972 28.352H72.364L71.628 28.032Z" fill="black"/>
<path d="M89.4995 6.784L89.9155 6.4L88.9235 5.792L89.0515 5.312L89.3075 5.088L90.1395 4.736L91.2275 4.544H93.5635L95.7075 4.768L97.2435 4.576L97.6595 4.64L98.8115 5.088L99.1315 5.792L98.2035 6.4L97.5955 6.624L98.0435 7.2L97.0195 7.424L96.1235 7.84L95.7075 8.256L95.3875 8.832L95.2595 9.952L95.5155 10.72L95.0995 11.648L95.4835 12.896L95.3555 13.44L95.4195 13.6V14.368L95.1635 15.136L95.4835 15.904L95.2275 16.608L95.5155 17.856L95.2915 18.272L94.8435 18.528L95.3555 18.912L95.5155 19.328L95.3555 20.032L95.4835 21.184V22.784L95.3235 23.744L95.9315 25.376L96.3155 25.664L97.1155 25.728L97.8515 25.888L98.3955 26.144L98.9075 26.656L99.0355 27.424L98.9715 27.616L98.3635 28.384L97.4995 28.48H96.0595L94.9395 28.608H90.6195L90.0115 28.512L89.4995 28.288L89.1155 27.872L89.2115 27.232L89.1155 26.528L89.2115 26.4L89.8515 26.08L91.5155 25.728L92.0595 25.088L92.3475 24.608L92.7315 23.616V22.208L92.8275 21.792L92.5395 21.568V16.32L92.6675 14.976L92.5395 14.56V11.168L92.4435 10.656L92.6675 9.856V8.608L92.1875 7.968L91.0675 7.296L89.4995 6.784Z" fill="black"/>
<path d="M108.331 27.872L108.267 26.976L108.011 26.688V24.16L108.331 23.072L108.139 22.944V20.64L108.331 20.064V18.272L108.235 17.952L108.171 17.184L108.427 16.48L108.075 15.584L108.203 14.656L108.107 14.432V10.336L108.395 9.568L107.947 9.088L107.851 8.032L107.403 7.744L106.507 7.392L105.163 7.072H102.859L102.891 6.72L101.675 6.016L101.515 5.984L101.579 5.376L101.995 5.024L103.819 4.512H106.731L109.003 4.704L109.579 4.576H112.395L113.707 4.448L115.307 4.736H116.395L117.259 5.152L117.355 5.44L117.003 6.08L116.587 6.24L116.971 6.912L116.267 7.136H114.411L113.227 7.232L112.171 7.488L111.339 7.968L111.083 8.32L110.763 9.312V9.952L110.891 10.112V19.296L110.635 20.288L110.891 20.608V22.176L110.763 22.944L110.379 22.848L110.891 23.904L110.763 25.12L110.859 26.208L110.539 27.616L110.251 28.128L109.643 28.352L109.131 28.32L108.331 27.872Z" fill="black"/>
</svg>
