<svg width="28" height="28" viewBox="0 0 28 28" fill="none" xmlns="http://www.w3.org/2000/svg">
<path d="M22.1665 15.7502C22.1665 19.5856 22.1665 21.5032 21.1073 22.794C20.9134 23.0303 20.6968 23.2469 20.4604 23.4408C19.1697 24.5002 17.252 24.5002 13.4165 24.5002H12.8333C8.43355 24.5002 6.23369 24.5002 4.86685 23.1333C3.50003 21.7665 3.5 19.5666 3.5 15.1668V14.5835C3.5 10.7481 3.5 8.83042 4.55926 7.53968C4.7532 7.30338 4.96988 7.08669 5.20618 6.89276C6.49692 5.8335 8.41461 5.8335 12.25 5.8335" fill="black"/>
<path d="M22.1666 15.7502C22.1666 19.5856 22.1665 21.5032 21.1073 22.794C20.9134 23.0303 20.6968 23.2469 20.4604 23.4408C19.1697 24.5002 17.252 24.5002 13.4165 24.5002H12.8333C8.43355 24.5002 6.23369 24.5002 4.86685 23.1333C3.50003 21.7665 3.5 19.5666 3.5 15.1668V14.5835C3.5 10.7481 3.5 8.83042 4.55926 7.53968C4.7532 7.30338 4.96988 7.08669 5.20618 6.89276C6.49692 5.8335 8.41461 5.8335 12.25 5.8335" stroke="black" stroke-width="1.5" stroke-linecap="round" stroke-linejoin="round"/>
<path d="M19.1625 5.3726L20.3175 4.21761C21.2744 3.2608 22.8258 3.2608 23.7825 4.21761C24.7393 5.17444 24.7393 6.72575 23.7825 7.68258L22.6275 8.83757M19.1625 5.3726L11.3933 13.1418C10.8012 13.734 10.3812 14.4758 10.1781 15.2881L9.3335 18.6667L12.712 17.822C13.5244 17.619 14.2662 17.1989 14.8584 16.6068L22.6275 8.83757M19.1625 5.3726L22.6275 8.83757L19.1625 5.3726Z" fill="white"/>
<path d="M19.1625 5.3726L20.3175 4.21761C21.2744 3.2608 22.8258 3.2608 23.7825 4.21761C24.7393 5.17444 24.7393 6.72575 23.7825 7.68258L22.6275 8.83757M19.1625 5.3726L11.3933 13.1418C10.8012 13.734 10.3812 14.4758 10.1781 15.2881L9.3335 18.6667L12.712 17.822C13.5244 17.619 14.2662 17.1989 14.8584 16.6068L22.6275 8.83757M19.1625 5.3726L22.6275 8.83757" stroke="black" stroke-width="1.5" stroke-linejoin="round"/>
</svg>
