<svg width="54" height="26" viewBox="0 0 54 26" fill="none" xmlns="http://www.w3.org/2000/svg">
<path d="M4.50075 24.36L4.05275 23.912L3.66875 23.048L3.60475 22.44L3.66875 22.76L3.82875 21.704L3.31675 20.52L3.54075 19.752L3.15675 19.304L2.99675 18.6V17.32L3.38075 16.904L2.70875 15.912L2.83675 15.048L2.38875 14.696V12.104L1.90875 11.112L1.52475 8.04V7.016L1.17275 5.928L1.30075 5.352L0.88475 4.04L1.36475 3.688L0.82075 3.048V1.96L0.94875 1.608L1.52475 0.999998L1.90875 0.872L2.74075 0.967999L3.22075 1.192L3.70075 1.704L3.95675 2.376L4.02075 3.208L3.73275 3.72L4.14875 4.008V5.384L4.43675 5.896V7.784L4.78875 9.416V10.504L4.18075 10.6L5.04475 11.336L4.82075 12.328L5.39675 13.448L5.81275 14.728L5.52475 15.08L6.10075 15.528L6.70875 15.048L6.32475 14.6L6.99675 14.056L6.86875 13.448L7.25275 12.424L7.38075 11.72L7.76475 11.208L7.63675 10.312L8.11675 9.416L8.94875 9.096L9.14075 8.84L8.85275 8.488L9.46075 8.232L10.1967 8.52L10.9327 9.384L11.1248 9.832L11.1888 10.696L11.0927 11.016L11.6368 12.2L11.5728 12.392L11.7648 13.256L11.9567 13.608L12.3728 14.824L13.0767 14.728L13.8448 14.088L13.7168 13.352L13.7808 12.648L13.7168 12.264L13.7808 11.752L14.1328 10.824L13.9727 10.024L14.0688 9.64L14.3247 9.128L14.1968 8.2L14.2607 7.208L14.5808 5.928L14.7408 5.768L14.5487 5.192L14.6768 4.616L15.0928 4.2L14.7087 3.368L14.9008 2.376L15.3167 1.64L15.6047 1.32L16.3728 0.935999H17.1087L17.9727 1.64V3.208L17.8127 4.776L17.3328 5.544L17.6208 6.056L17.4288 7.88L17.0448 8.68V9.8L16.7887 10.504L16.6287 12.104L16.5648 11.976V13.8L16.3088 14.92L15.8608 15.688L16.1168 16.424L15.7647 17.448L15.8608 17.864L15.6047 19.496V20.136L15.3808 20.552L15.2528 21.96L14.9648 23.304L14.5808 24.008L14.1328 24.36L12.8848 24.744L12.5328 24.616L11.7008 24.136L11.5087 23.912L11.2847 23.176L11.5087 22.696L11.0288 22.344L10.8687 21.8V20.776L10.6128 20.456L10.4207 19.528L10.0048 18.536V17.96L9.71675 17.448L9.04475 17.704L8.53275 18.952L8.11675 19.592L8.21275 20.424V21.608L7.63675 22.504V23.144L7.22075 24.168L6.61275 24.552L5.42875 24.744L4.50075 24.36ZM22.3403 24.264L21.0283 22.6L20.4843 21.672L20.2283 20.616L20.3243 19.368L19.9083 18.792V17.48L20.0363 16.36L19.9403 15.176L20.1323 14.856L19.9403 13.896L20.1963 12.648L19.9083 12.328L20.0363 10.984L19.9083 10.6V7.24L20.2283 6.6L20.2923 5.96L20.8043 4.36L20.5483 3.784L20.9323 3.048L21.3483 2.568L21.5403 1.928L22.1803 1.32L22.9483 0.967999L24.5483 0.679998L24.7403 0.455999L25.3802 0.296H29.2203L30.6283 0.455999L32.1323 0.935999L32.5803 1.192L33.3803 2.056L33.9883 2.792L34.1483 3.72L34.5643 4.392L34.6603 5.512L34.8843 5.928V7.144L34.8203 7.752L35.0123 9.096L34.8523 9.832V10.6L34.9483 10.984V14.792L34.6603 15.144L35.0123 16.136L34.8523 18.504L34.5643 18.76L34.7882 19.048L34.6923 19.976L34.5003 20.808V21.512L33.9883 22.376L34.0203 22.6L33.7003 23.176L33.0603 23.656L30.9803 24.808L30.1483 25.064H24.9643L23.5243 24.776L22.3403 24.264ZM24.0043 21.416L24.7403 22.024L25.7003 22.28L26.7243 22.376H28.0043L29.5723 22.184L30.2763 21.864L31.0443 21.192L31.5883 20.008L31.8123 19.144L32.0363 17.608V16.264L31.9403 15.784L32.0363 15.496L31.9083 14.088L32.0363 13.096L31.9083 11.624L32.0363 10.44L31.9083 9.8V7.816L32.0363 7.176L31.7483 5.8V5.16L31.1723 4.232L29.8283 3.336L27.6203 2.952L25.9883 3.176L24.6443 3.56L23.8443 4.008L23.6843 4.168L23.2683 5.608L22.8843 5.672V15.016L22.6603 16.072L22.8843 16.936V17.48L22.7883 17.896L23.0123 19.112L22.6283 19.368L22.9163 19.592L23.4603 20.36L24.0043 21.416ZM38.7398 24.392L38.3878 23.752L38.6758 23.24L38.2598 22.632V15.24L38.3878 14.408L38.2598 13.576L38.3878 12.68L38.2598 12.456V9.608L38.6758 9.512L38.3558 8.968L38.2598 8.264L38.3558 7.72L38.7078 7.56L38.2598 7.272L38.3878 6.28L38.2598 5.48V4.808L38.3878 4.2L38.2598 3.72V2.984L38.4198 1.992L38.5478 1.736L38.8998 1.48L39.8918 1.192L41.3638 0.935999L42.6758 1.224H43.3158L44.5638 0.967999L45.4598 1.224L47.1238 1.384L48.2118 1.736L49.1398 2.216L50.1318 2.92L51.3158 4.136L52.0198 5.128L52.0518 5.48L51.8598 5.704L52.2118 5.96L52.8198 6.888V7.336L52.7878 7.624L53.0758 8.328L53.4278 10.248L53.3638 10.6L53.0118 11.048L53.5238 12.232L53.4598 12.68L53.1718 13.288L53.3958 14.344L53.2358 14.824L53.4598 15.272L53.1398 17.416L52.7238 18.12L52.8198 18.472L52.7878 18.824L52.2438 19.464L52.0518 20.68L50.6438 22.472L50.2598 22.728L49.3958 23.048L48.8838 23.432L48.0518 24.232L46.8998 24.584L44.5958 24.936H40.6598L39.5398 24.776L38.7398 24.392ZM41.8438 21.96H44.1478L47.1238 21.64V21.352L48.4358 20.04L48.9158 19.72L49.5558 18.568L49.8438 17.576L50.1958 16.968L50.3558 15.784L50.5798 14.824V11.016L50.3558 10.664V9.576L49.4598 7.368L49.3318 6.312L47.9558 4.968L47.2518 4.392L45.4278 3.912L44.4038 3.784H42.6758L42.0998 3.88L41.4598 4.68L41.2358 5.448V9.832L40.8518 10.824L41.2358 11.592V12.104L41.1398 12.776L41.2358 13.768L41.5878 14.216L40.9798 14.632L41.2358 15.144V17.704L41.0438 18.088L41.2358 18.504L41.1398 19.752L41.2998 20.648L41.8438 21.96Z" fill="#63461E"/>
</svg>
